<?xml version="1.0" encoding="UTF-8"?><svg id="Layer_2" xmlns="http://www.w3.org/2000/svg" viewBox="0 0 1190.14 326.24"><defs><style>.cls-1{fill:#f9f9f9;}</style></defs><g id="Layer_1-2"><g><g><g><path class="cls-1" d="M258.47,227.43c1.82,5.28,3.44,10.64,4.89,16.04,2.49,9.3,5.28,18.07,2.67,27.72-.42,1.54-.94,3.06-1.06,4.65-.29,3.85,2.77,7.27,6.74,5.91,5.25-1.8,8.72-8.73,11.01-13.25,12.13-23.95,14.07-68.13-1.19-84.15l-23.06,43.07Z"/><path class="cls-1" d="M272.88,56.66c-1.51-2.15-3.14-4.23-4.89-6.22-5.02-5.74-10.27-9.21-15.53-10.78-12.65-3.79-25.37,3.4-35.25,16.51-10.26,13.6-19.77,27.86-29,42.17-4.66,7.22-9.2,14.53-13.82,21.79-8.46-1.31-37.47-5.07-50.2,2.95-14.27,8.99,28.68,15.14,22.78,35.73-12.14,14.48-26.46,27.61-43.58,35.09-15.55,6.8-34.85,7.45-48.54-2.57-7.57-5.54-12.77-13.8-16.39-22.46-3.11-7.43-5.17-15.3-6.13-23.3,.06-.44,.13-.88,.21-1.31,26.46,2.05,37.42-.76,45.04-12.45-3.21-.99-6.04-2.31-8.99-2.69-6.57-.86-11.55-3.63-15.8-8.97-4.35-5.46-9.91-9.96-16-15.93,.18-.35,1.56-2.11,1.9-4.05,1.21-6.71,2.69-13.47,2.89-20.24,.24-7.92-.17-15.9-.81-23.77-.18-2.2-.93-7.75-3.65-8.3-1.96-.39-4.57,2.23-5.88,3.4-3.44,3.06-5.62,7.26-8.05,11.1-3.4,5.35-6.45,10.92-9.12,16.67-5.31,11.44-9.08,23.56-11.31,35.98-1,5.59-1.7,11.16-2.09,16.68-2.27,21.15,1.35,42.61,9.27,62.42,10.39,26.03,27.85,49.33,49.83,66.72,22.57,17.86,50.19,29.25,79.07,30.56,10.12,.45,20.19,.01,30.03-1.38,3.31-7.65,10.21-23.81,11.41-28.01,1.59-5.55-3.48,30.75-6.58,37.73,0,0,0,.01-.01,.02-1.14,3.26-2.66,6.47-4.71,9.58-1.25,1.91-2.64,3.75-3.52,5.86-2.11,5.11,.53,11.13,6.54,11.05,7.94-.11,15.76-8,20.89-13.12,10.13-10.13,19.58-24.7,26.75-40.49,10.84-6.38,20.81-14.42,29.56-24.22,24.23-27.13,37.05-63.24,40.58-99.07,2.99-30.25,1.36-66.75-16.9-92.68Zm-62.62,83.5c-6.81-3.08-7.59-16.07-1.75-29.02,5.85-12.95,16.1-20.97,22.91-17.9,6.81,3.07,7.59,16.07,1.74,29.02-5.84,12.95-16.1,20.97-22.9,17.9Zm74.66,8.52c-1.3,10.26-3.47,20.85-6.46,31.48-2.3,8.19-5.11,16.22-8.34,23.88-5.14,12.18-11.54,23.27-19.03,32.96-1.95,2.53-4.01,5.01-6.11,7.37-3.89,4.35-8.08,8.39-12.56,12.11,2.45-7.58,4.26-15.05,5.35-22.17,1.99-13.04,1.54-24.25-1.36-33.37,8.77-12.21,13.27-29.5,13.39-51.47,.14-28.36,7.56-55.64,21.45-78.88,.12-.21,.34-.59,.62-1.09,.44-.8,.84-1.5,1.21-2.13,.99,1.93,1.82,3.92,2.71,6.05,.33,.8,.67,1.62,1.02,2.44,2.69,6.28,4.83,13.05,6.36,20.14,3.51,16.37,4.11,34.1,1.75,52.68Z"/></g><path class="cls-1" d="M100.44,.05c-2.3-.2-4.89,.29-7.17,.59s-4.68,.75-6.98,1.31c-4.46,1.1-8.8,2.68-12.91,4.75-8.4,4.23-15.64,10.42-21.53,17.72-1.87,2.31-3.57,4.73-5.19,7.22-1.89,2.91-4.07,6.06-4.09,9.66,0,.53,.05,1.08,.27,1.56s.64,.9,1.16,1.01c.58,.13,1.17-.14,1.69-.43,3.83-2.18,6.17-6.36,9.5-9.17,14.94-12.62,31.6-15.92,50.21-9.23,2.98,1.07,6.63,1.46,9.71,.84,4.88-.97,7.83-4.68,8.53-9.65,.73-5.19-1.16-9.41-5.75-12.14C112.9,1.14,107.26,.65,100.44,.05Z"/><path class="cls-1" d="M76.3,31.23c-5.31-.34-10.59,1.22-15.17,3.85-4.36,2.5-8.98,6.27-11.5,10.7-.5,.88-.86,1.84-.9,2.85-.01,.31,.01,.64,.2,.88,.34,.44,1.01,.39,1.55,.27,2.62-.6,5-1.89,7.47-2.93,2.49-1.05,5.06-1.67,7.77-1.76,5.44-.18,10.62,1.84,14.98,5.01,2.91,2.11,5.97,2.98,9.37,1.39,6.38-2.99,7.25-11.53,1.55-15.77-4.12-3.07-8.96-4.08-15.32-4.49Z"/><path class="cls-1" d="M73.78,51.54c-3.6-1.67-7.7-1.85-11.54-1.03-1.94,.41-3.82,1.08-5.6,1.95-1.52,.74-3.67,1.65-4.11,3.47-.05,.2-.07,.43,.04,.61,.61,.92,4.43,.36,5.41,.35,2.06-.01,4.16,.04,6.12,.75,3.33,1.21,5.99,3.67,7.89,6.61,1.29,2,2.98,3.27,5.46,3.1,4.66-.32,7.24-5.4,4.73-9.37-1.82-2.88-4.57-4.66-8.4-6.44Z"/></g><g><path class="cls-1" d="M447.99,204.74c-10.98,10.98-24.37,16.47-40.19,16.47s-29.21-5.49-40.19-16.47c-10.98-10.98-16.47-24.37-16.47-40.19s5.49-29.21,16.47-40.19,24.37-16.46,40.19-16.46,29.21,5.49,40.19,16.46c10.98,10.98,16.46,24.37,16.46,40.19s-5.49,29.21-16.46,40.19Zm-67.73-12.17c7.44,7.44,16.62,11.16,27.54,11.16s20.11-3.72,27.55-11.16c7.44-7.44,11.16-16.78,11.16-28.01s-3.72-20.57-11.16-28.01c-7.44-7.44-16.62-11.16-27.55-11.16s-20.11,3.72-27.54,11.16c-7.44,7.44-11.16,16.78-11.16,28.01s3.72,20.58,11.16,28.01Z"/><path class="cls-1" d="M496.6,154.26c4.26-9.68,12.28-14.51,24.03-14.51v18.26c-6.45-.41-12.07,1.12-16.85,4.6-4.79,3.49-7.18,9.23-7.18,17.24v39.33h-16.86v-78.03h16.86v13.11Z"/><path class="cls-1" d="M566.36,221.21c-11.76,0-21.56-3.95-29.42-11.86-7.86-7.91-11.78-17.64-11.78-29.18s3.93-21.41,11.78-29.26c7.85-7.85,17.66-11.78,29.42-11.78,7.59,0,14.51,1.82,20.76,5.46,6.24,3.64,10.93,8.53,14.05,14.67l-14.51,8.43c-1.77-3.74-4.45-6.68-8.04-8.82-3.59-2.13-7.72-3.2-12.41-3.2-6.87,0-12.62,2.34-17.25,7.02-4.63,4.68-6.94,10.51-6.94,17.48s2.31,12.8,6.94,17.48c4.63,4.68,10.38,7.02,17.25,7.02,4.58,0,8.71-1.09,12.41-3.28,3.69-2.18,6.48-5.1,8.35-8.74l14.51,8.27c-3.33,6.24-8.12,11.19-14.36,14.83-6.24,3.64-13.16,5.46-20.76,5.46Z"/><path class="cls-1" d="M674.2,141.15h16.86v78.03h-16.86v-11.24c-6.35,8.84-15.45,13.27-27.31,13.27-10.72,0-19.87-3.98-27.47-11.94-7.6-7.96-11.39-17.66-11.39-29.11s3.8-21.28,11.39-29.18c7.59-7.91,16.75-11.86,27.47-11.86,11.86,0,20.96,4.37,27.31,13.11v-11.08Zm-42.29,56.89c4.68,4.74,10.56,7.1,17.64,7.1s12.95-2.36,17.64-7.1c4.68-4.73,7.02-10.69,7.02-17.87s-2.34-13.13-7.02-17.87c-4.68-4.73-10.56-7.1-17.64-7.1s-12.95,2.37-17.64,7.1c-4.68,4.74-7.02,10.69-7.02,17.87s2.34,13.14,7.02,17.87Z"/><path class="cls-1" d="M794.53,109.94c14.88,0,27.18,5.28,36.91,15.84,9.73,10.56,14.59,23.49,14.59,38.78s-4.87,28.22-14.59,38.78c-9.73,10.56-22.03,15.84-36.91,15.84h-42.14V109.94h42.14Zm0,98.94c11.96,0,21.77-4.26,29.42-12.8,7.65-8.53,11.47-19.04,11.47-31.52s-3.82-22.99-11.47-31.53c-7.65-8.53-17.45-12.8-29.42-12.8h-31.21v88.64h31.21Z"/><path class="cls-1" d="M873.65,122.42c-1.46,1.46-3.23,2.19-5.31,2.19s-3.85-.73-5.31-2.19c-1.46-1.46-2.18-3.22-2.18-5.31s.73-3.85,2.18-5.31c1.46-1.46,3.22-2.18,5.31-2.18s3.85,.73,5.31,2.18c1.46,1.46,2.19,3.23,2.19,5.31s-.73,3.85-2.19,5.31Zm-10.46,96.76v-78.03h10.3v78.03h-10.3Z"/><path class="cls-1" d="M962.45,141.15h10.3v74.91c0,11.24-3.85,20.08-11.55,26.53-7.7,6.45-16.91,9.68-27.62,9.68-18.31,0-30.64-6.35-36.99-19.04l9.05-5.15c4.68,9.47,13.99,14.2,27.94,14.2,8.95,0,16-2.37,21.15-7.1,5.15-4.73,7.72-11.11,7.72-19.12v-12.17c-7.18,11.45-17.69,17.17-31.52,17.17-11.13,0-20.63-3.95-28.48-11.86-7.86-7.91-11.78-17.58-11.78-29.03s3.93-21.12,11.78-29.03c7.85-7.91,17.35-11.86,28.48-11.86,13.84,0,24.35,5.72,31.52,17.17v-15.29Zm-52.59,60.94c5.93,5.98,13.21,8.97,21.85,8.97s15.92-2.99,21.85-8.97c5.93-5.98,8.9-13.29,8.9-21.93s-2.97-15.94-8.9-21.93c-5.93-5.98-13.21-8.97-21.85-8.97s-15.92,2.99-21.85,8.97c-5.93,5.98-8.9,13.29-8.9,21.93s2.97,15.95,8.9,21.93Z"/><path class="cls-1" d="M1005.05,122.42c-1.46,1.46-3.23,2.19-5.31,2.19s-3.85-.73-5.31-2.19c-1.46-1.46-2.18-3.22-2.18-5.31s.73-3.85,2.18-5.31c1.46-1.46,3.22-2.18,5.31-2.18s3.85,.73,5.31,2.18c1.46,1.46,2.19,3.23,2.19,5.31s-.73,3.85-2.19,5.31Zm-10.46,96.76v-78.03h10.3v78.03h-10.3Z"/><path class="cls-1" d="M1068.1,151.14h-22.47v47.29c0,4.27,.83,7.31,2.5,9.13,1.66,1.82,4.16,2.76,7.49,2.81,3.33,.05,7.49-.02,12.49-.23v9.05c-10.93,1.66-19.12,.88-24.58-2.34-5.46-3.22-8.19-9.36-8.19-18.42v-47.29h-16.39v-9.99h16.39v-18.73l10.3-3.12v21.85h22.47v9.99Z"/><path class="cls-1" d="M1147.69,141.15h10.3v78.03h-10.3v-15.29c-7.18,11.45-17.69,17.17-31.52,17.17-11.13,0-20.63-3.95-28.48-11.86-7.86-7.91-11.78-17.58-11.78-29.03s3.93-21.12,11.78-29.03c7.85-7.91,17.35-11.86,28.48-11.86,13.84,0,24.35,5.72,31.52,17.17v-15.29Zm-52.59,60.94c5.93,5.98,13.21,8.97,21.85,8.97s15.92-2.99,21.85-8.97c5.93-5.98,8.9-13.29,8.9-21.93s-2.97-15.94-8.9-21.93c-5.93-5.98-13.21-8.97-21.85-8.97s-15.92,2.99-21.85,8.97c-5.93,5.98-8.9,13.29-8.9,21.93s2.97,15.95,8.9,21.93Z"/><path class="cls-1" d="M1179.84,219.18V105.25h10.3v113.93h-10.3Z"/></g></g></g></svg>